<svg xmlns="http://www.w3.org/2000/svg" width="191.208" height="191.208" viewBox="0 0 191.208 191.208">
  <path d="M53.7645 107.529V81.2532C53.7645 66.094 66.094 53.7645 81.2532 53.7645H181.607C166.043 21.9303 133.401 0 95.6038 0C42.8499 0 0 42.8499 0 95.6038C0 99.6463 0.303183 103.689 0.707428 107.529H53.7645Z" fill="#D50039"/>
  <path d="M137.444 83.6787V109.955C137.444 125.114 125.114 137.443 109.955 137.443H9.60156C25.165 169.277 57.8077 191.208 95.6046 191.208C148.359 191.208 191.208 148.358 191.208 95.6039C191.208 91.5615 190.905 87.519 190.501 83.6787H137.444Z" fill="#D50039"/>
</svg>
